<svg width="1396" height="255" viewBox="0 0 1396 255" fill="none" xmlns="http://www.w3.org/2000/svg">
<path d="M246.5 130.5C246.5 194.977 193.139 247.5 127 247.5C60.8607 247.5 7.5 194.977 7.5 130.5C7.5 66.0226 60.8607 13.5 127 13.5C193.139 13.5 246.5 66.0226 246.5 130.5Z" fill="white" stroke="#FF5800" stroke-width="15"/>
<line x1="86.2249" y1="93.0307" x2="155.225" y2="174.031" stroke="#FF5800" stroke-width="40"/>
<line x1="127.342" y1="171.946" x2="318.704" y2="15.5154" stroke="#FF5800" stroke-width="40"/>
<path d="M299.504 194.528H330.736V204H287.856V114.784H299.504V194.528ZM349.122 122.464C346.903 122.464 345.026 121.696 343.49 120.16C341.954 118.624 341.186 116.747 341.186 114.528C341.186 112.309 341.954 110.432 343.49 108.896C345.026 107.36 346.903 106.592 349.122 106.592C351.255 106.592 353.047 107.36 354.498 108.896C356.034 110.432 356.802 112.309 356.802 114.528C356.802 116.747 356.034 118.624 354.498 120.16C353.047 121.696 351.255 122.464 349.122 122.464ZM354.754 133.856V204H343.106V133.856H354.754ZM399.438 205.152C394.062 205.152 389.241 204.256 384.974 202.464C380.707 200.587 377.337 198.027 374.862 194.784C372.387 191.456 371.022 187.659 370.766 183.392H382.798C383.139 186.891 384.761 189.749 387.662 191.968C390.649 194.187 394.531 195.296 399.31 195.296C403.747 195.296 407.246 194.315 409.806 192.352C412.366 190.389 413.646 187.915 413.646 184.928C413.646 181.856 412.281 179.595 409.55 178.144C406.819 176.608 402.595 175.115 396.878 173.664C391.673 172.299 387.406 170.933 384.078 169.568C380.835 168.117 378.019 166.027 375.63 163.296C373.326 160.48 372.174 156.811 372.174 152.288C372.174 148.704 373.241 145.419 375.374 142.432C377.507 139.445 380.537 137.099 384.462 135.392C388.387 133.6 392.867 132.704 397.902 132.704C405.667 132.704 411.939 134.667 416.718 138.592C421.497 142.517 424.057 147.893 424.398 154.72H412.75C412.494 151.051 411.001 148.107 408.27 145.888C405.625 143.669 402.041 142.56 397.518 142.56C393.337 142.56 390.009 143.456 387.534 145.248C385.059 147.04 383.822 149.387 383.822 152.288C383.822 154.592 384.547 156.512 385.998 158.048C387.534 159.499 389.411 160.693 391.63 161.632C393.934 162.485 397.091 163.467 401.102 164.576C406.137 165.941 410.233 167.307 413.39 168.672C416.547 169.952 419.235 171.915 421.454 174.56C423.758 177.205 424.953 180.661 425.038 184.928C425.038 188.768 423.971 192.224 421.838 195.296C419.705 198.368 416.675 200.8 412.75 202.592C408.91 204.299 404.473 205.152 399.438 205.152ZM455.689 143.456V184.8C455.689 188.213 456.414 190.645 457.865 192.096C459.316 193.461 461.833 194.144 465.417 194.144H473.993V204H463.497C457.012 204 452.148 202.507 448.905 199.52C445.662 196.533 444.041 191.627 444.041 184.8V143.456H434.953V133.856H444.041V116.192H455.689V133.856H473.993V143.456H455.689ZM572.458 132.576C577.919 132.576 582.783 133.728 587.05 136.032C591.317 138.251 594.687 141.621 597.162 146.144C599.637 150.667 600.874 156.171 600.874 162.656V204H589.354V164.32C589.354 157.323 587.605 151.989 584.106 148.32C580.693 144.565 576.042 142.688 570.154 142.688C564.095 142.688 559.274 144.651 555.69 148.576C552.106 152.416 550.314 158.005 550.314 165.344V204H538.794V164.32C538.794 157.323 537.045 151.989 533.546 148.32C530.133 144.565 525.482 142.688 519.594 142.688C513.535 142.688 508.714 144.651 505.13 148.576C501.546 152.416 499.754 158.005 499.754 165.344V204H488.106V133.856H499.754V143.968C502.058 140.299 505.13 137.483 508.97 135.52C512.895 133.557 517.205 132.576 521.898 132.576C527.786 132.576 532.991 133.899 537.514 136.544C542.037 139.189 545.407 143.072 547.626 148.192C549.589 143.243 552.831 139.403 557.354 136.672C561.877 133.941 566.911 132.576 572.458 132.576ZM683.981 166.24C683.981 168.459 683.853 170.805 683.597 173.28H627.533C627.96 180.192 630.306 185.611 634.573 189.536C638.925 193.376 644.173 195.296 650.317 195.296C655.352 195.296 659.533 194.144 662.861 191.84C666.274 189.451 668.664 186.293 670.029 182.368H682.573C680.696 189.109 676.941 194.613 671.309 198.88C665.677 203.061 658.68 205.152 650.317 205.152C643.661 205.152 637.688 203.659 632.397 200.672C627.192 197.685 623.096 193.461 620.109 188C617.122 182.453 615.629 176.053 615.629 168.8C615.629 161.547 617.08 155.189 619.981 149.728C622.882 144.267 626.936 140.085 632.141 137.184C637.432 134.197 643.49 132.704 650.317 132.704C656.973 132.704 662.861 134.155 667.981 137.056C673.101 139.957 677.026 143.968 679.757 149.088C682.573 154.123 683.981 159.84 683.981 166.24ZM671.949 163.808C671.949 159.371 670.968 155.573 669.005 152.416C667.042 149.173 664.354 146.741 660.941 145.12C657.613 143.413 653.901 142.56 649.805 142.56C643.917 142.56 638.882 144.437 634.701 148.192C630.605 151.947 628.258 157.152 627.661 163.808H671.949ZM733.532 132.576C742.065 132.576 748.977 135.179 754.268 140.384C759.559 145.504 762.204 152.928 762.204 162.656V204H750.684V164.32C750.684 157.323 748.935 151.989 745.436 148.32C741.937 144.565 737.159 142.688 731.1 142.688C724.956 142.688 720.049 144.608 716.38 148.448C712.796 152.288 711.004 157.877 711.004 165.216V204H699.356V133.856H711.004V143.84C713.308 140.256 716.423 137.483 720.348 135.52C724.359 133.557 728.753 132.576 733.532 132.576ZM795.439 143.456V184.8C795.439 188.213 796.164 190.645 797.615 192.096C799.066 193.461 801.583 194.144 805.167 194.144H813.743V204H803.247C796.762 204 791.898 202.507 788.655 199.52C785.412 196.533 783.791 191.627 783.791 184.8V143.456H774.703V133.856H783.791V116.192H795.439V133.856H813.743V143.456H795.439ZM887.709 204.896C881.992 204.896 877 203.872 872.733 201.824C868.552 199.776 865.309 197.088 863.005 193.76C860.701 190.347 859.336 186.677 858.909 182.752H861.469C861.896 185.739 862.962 188.725 864.669 191.712C866.461 194.699 869.234 197.259 872.989 199.392C876.829 201.525 881.736 202.592 887.709 202.592C892.488 202.592 896.712 201.696 900.381 199.904C904.05 198.027 906.866 195.552 908.829 192.48C910.792 189.408 911.773 185.995 911.773 182.24C911.773 177.376 910.664 173.536 908.445 170.72C906.226 167.819 903.453 165.685 900.125 164.32C896.882 162.955 892.488 161.547 886.941 160.096C881.138 158.56 876.488 157.024 872.989 155.488C869.49 153.952 866.504 151.605 864.029 148.448C861.64 145.205 860.445 140.853 860.445 135.392C860.445 131.467 861.512 127.797 863.645 124.384C865.864 120.885 868.978 118.112 872.989 116.064C877.085 114.016 881.736 112.992 886.941 112.992C892.232 112.992 896.797 113.931 900.637 115.808C904.477 117.685 907.464 120.075 909.597 122.976C911.816 125.792 913.266 128.779 913.949 131.936H911.389C910.792 129.461 909.554 126.944 907.677 124.384C905.8 121.824 903.112 119.691 899.613 117.984C896.114 116.192 891.89 115.296 886.941 115.296C882.589 115.296 878.578 116.149 874.909 117.856C871.325 119.477 868.424 121.824 866.205 124.896C864.072 127.883 863.005 131.381 863.005 135.392C863.005 140.341 864.114 144.309 866.333 147.296C868.637 150.197 871.453 152.373 874.781 153.824C878.109 155.189 882.546 156.597 888.093 158.048C893.896 159.584 898.504 161.12 901.917 162.656C905.416 164.107 908.36 166.411 910.749 169.568C913.138 172.64 914.333 176.864 914.333 182.24C914.333 185.995 913.309 189.621 911.261 193.12C909.298 196.619 906.312 199.477 902.301 201.696C898.29 203.829 893.426 204.896 887.709 204.896ZM961.71 202.592C969.475 202.592 976.003 200.629 981.294 196.704C986.585 192.779 989.785 187.403 990.894 180.576H993.454C992.259 187.829 988.846 193.717 983.214 198.24C977.667 202.677 970.499 204.896 961.71 204.896C955.31 204.896 949.593 203.488 944.558 200.672C939.523 197.856 935.555 193.76 932.654 188.384C929.838 183.008 928.43 176.693 928.43 169.44C928.43 162.187 929.838 155.872 932.654 150.496C935.555 145.12 939.523 141.024 944.558 138.208C949.593 135.392 955.31 133.984 961.71 133.984C968.451 133.984 974.211 135.435 978.99 138.336C983.769 141.152 987.353 144.821 989.742 149.344C992.217 153.867 993.454 158.645 993.454 163.68C993.454 166.752 993.411 169.056 993.326 170.592H930.99C931.075 177.675 932.526 183.605 935.342 188.384C938.243 193.163 941.998 196.747 946.606 199.136C951.214 201.44 956.249 202.592 961.71 202.592ZM961.71 136.288C956.249 136.288 951.214 137.483 946.606 139.872C941.998 142.176 938.243 145.717 935.342 150.496C932.526 155.275 931.075 161.205 930.99 168.288H991.15C991.577 161.205 990.425 155.275 987.694 150.496C985.049 145.717 981.379 142.176 976.686 139.872C972.078 137.483 967.086 136.288 961.71 136.288ZM1014.57 151.648C1017.3 139.445 1026.38 133.344 1041.83 133.344V136.16H1040.68C1033.42 136.16 1027.24 138.293 1022.12 142.56C1017.08 146.741 1014.57 153.525 1014.57 162.912V204H1012.01V134.88H1014.57V151.648ZM1077.4 200.16L1105.05 134.88H1107.74L1078.3 204H1076.38L1046.94 134.88H1049.75L1077.4 200.16ZM1122.41 117.216C1121.47 117.216 1120.66 116.917 1119.98 116.32C1119.38 115.637 1119.08 114.784 1119.08 113.76C1119.08 112.736 1119.38 111.925 1119.98 111.328C1120.66 110.645 1121.47 110.304 1122.41 110.304C1123.35 110.304 1124.12 110.645 1124.71 111.328C1125.4 111.925 1125.74 112.736 1125.74 113.76C1125.74 114.784 1125.4 115.637 1124.71 116.32C1124.12 116.917 1123.35 117.216 1122.41 117.216ZM1123.69 134.88V204H1121.13V134.88H1123.69ZM1142.31 169.44C1142.31 162.187 1143.71 155.872 1146.53 150.496C1149.43 145.12 1153.4 141.024 1158.43 138.208C1163.47 135.392 1169.19 133.984 1175.59 133.984C1184.37 133.984 1191.54 136.245 1197.09 140.768C1202.72 145.205 1206.13 151.051 1207.33 158.304H1204.77C1203.66 151.477 1200.46 146.101 1195.17 142.176C1189.88 138.251 1183.35 136.288 1175.59 136.288C1170.04 136.288 1164.92 137.525 1160.23 140C1155.62 142.389 1151.91 146.059 1149.09 151.008C1146.27 155.957 1144.87 162.101 1144.87 169.44C1144.87 176.779 1146.27 182.923 1149.09 187.872C1151.91 192.821 1155.62 196.533 1160.23 199.008C1164.92 201.397 1170.04 202.592 1175.59 202.592C1183.35 202.592 1189.88 200.629 1195.17 196.704C1200.46 192.779 1203.66 187.403 1204.77 180.576H1207.33C1206.13 187.829 1202.72 193.717 1197.09 198.24C1191.54 202.677 1184.37 204.896 1175.59 204.896C1169.19 204.896 1163.47 203.488 1158.43 200.672C1153.4 197.856 1149.43 193.76 1146.53 188.384C1143.71 183.008 1142.31 176.693 1142.31 169.44ZM1255.96 202.592C1263.73 202.592 1270.25 200.629 1275.54 196.704C1280.83 192.779 1284.03 187.403 1285.14 180.576H1287.7C1286.51 187.829 1283.1 193.717 1277.46 198.24C1271.92 202.677 1264.75 204.896 1255.96 204.896C1249.56 204.896 1243.84 203.488 1238.81 200.672C1233.77 197.856 1229.81 193.76 1226.9 188.384C1224.09 183.008 1222.68 176.693 1222.68 169.44C1222.68 162.187 1224.09 155.872 1226.9 150.496C1229.81 145.12 1233.77 141.024 1238.81 138.208C1243.84 135.392 1249.56 133.984 1255.96 133.984C1262.7 133.984 1268.46 135.435 1273.24 138.336C1278.02 141.152 1281.6 144.821 1283.99 149.344C1286.47 153.867 1287.7 158.645 1287.7 163.68C1287.7 166.752 1287.66 169.056 1287.58 170.592H1225.24C1225.33 177.675 1226.78 183.605 1229.59 188.384C1232.49 193.163 1236.25 196.747 1240.86 199.136C1245.46 201.44 1250.5 202.592 1255.96 202.592ZM1255.96 136.288C1250.5 136.288 1245.46 137.483 1240.86 139.872C1236.25 142.176 1232.49 145.717 1229.59 150.496C1226.78 155.275 1225.33 161.205 1225.24 168.288H1285.4C1285.83 161.205 1284.67 155.275 1281.94 150.496C1279.3 145.717 1275.63 142.176 1270.94 139.872C1266.33 137.483 1261.34 136.288 1255.96 136.288ZM1328.53 204.896C1320.93 204.896 1314.79 203.36 1310.1 200.288C1305.49 197.216 1302.8 192.565 1302.03 186.336H1304.59C1305.1 191.456 1307.36 195.467 1311.38 198.368C1315.47 201.184 1321.23 202.592 1328.66 202.592C1332.41 202.592 1335.7 201.867 1338.51 200.416C1341.41 198.965 1343.63 197.045 1345.17 194.656C1346.7 192.181 1347.47 189.536 1347.47 186.72C1347.47 183.648 1346.58 181.173 1344.78 179.296C1343.08 177.333 1340.9 175.84 1338.26 174.816C1335.7 173.792 1332.15 172.683 1327.63 171.488C1322.6 170.208 1318.5 168.928 1315.34 167.648C1312.27 166.368 1309.63 164.405 1307.41 161.76C1305.27 159.115 1304.21 155.616 1304.21 151.264C1304.21 148.192 1305.15 145.333 1307.02 142.688C1308.9 140.043 1311.46 137.952 1314.7 136.416C1318.03 134.795 1321.74 133.984 1325.84 133.984C1332.84 133.984 1338.47 135.733 1342.74 139.232C1347 142.731 1349.31 147.595 1349.65 153.824H1347.09C1346.83 148.704 1344.87 144.523 1341.2 141.28C1337.62 137.952 1332.5 136.288 1325.84 136.288C1322.26 136.288 1319.01 136.971 1316.11 138.336C1313.21 139.701 1310.91 141.536 1309.2 143.84C1307.58 146.144 1306.77 148.619 1306.77 151.264C1306.77 155.019 1307.75 158.048 1309.71 160.352C1311.67 162.656 1314.06 164.363 1316.88 165.472C1319.78 166.581 1323.62 167.776 1328.4 169.056C1333.26 170.421 1337.06 171.659 1339.79 172.768C1342.61 173.877 1345 175.584 1346.96 177.888C1348.92 180.107 1349.9 183.051 1349.9 186.72C1349.9 190.133 1348.96 193.248 1347.09 196.064C1345.21 198.795 1342.65 200.971 1339.41 202.592C1336.16 204.128 1332.54 204.896 1328.53 204.896ZM1382.21 114.784L1380.8 178.784H1371.07L1369.67 114.784H1382.21ZM1376.45 204.768C1374.23 204.768 1372.35 204 1370.82 202.464C1369.28 200.928 1368.51 199.051 1368.51 196.832C1368.51 194.613 1369.28 192.736 1370.82 191.2C1372.35 189.664 1374.23 188.896 1376.45 188.896C1378.58 188.896 1380.38 189.664 1381.83 191.2C1383.36 192.736 1384.13 194.613 1384.13 196.832C1384.13 199.051 1383.36 200.928 1381.83 202.464C1380.38 204 1378.58 204.768 1376.45 204.768Z" fill="black"/>
</svg>
